<svg xmlns="http://www.w3.org/2000/svg" viewBox="0 0 64 64">
  <defs>
    <linearGradient id="bg" x1="12" y1="6" x2="52" y2="58" gradientUnits="userSpaceOnUse">
      <stop stop-color="#f6c26f"/>
      <stop offset="0.55" stop-color="#d58a28"/>
      <stop offset="1" stop-color="#8c4b11"/>
    </linearGradient>
    <filter id="shadow" x="-20%" y="-20%" width="140%" height="140%">
      <feDropShadow dx="0" dy="4" stdDeviation="4" flood-color="#6b3a12" flood-opacity="0.28"/>
    </filter>
  </defs>
  <rect width="64" height="64" rx="18" fill="url(#bg)"/>
  <path
    d="M21.2 15.6c3.7-2.1 7.4-.6 10.8 1.3 3.4-1.9 7.1-3.4 10.8-1.3 5.5 3.1 5 10.5 3.2 15.6-1.1 3.3-2.6 6-3.2 10.8-.8 6.2-2.8 10.8-6 10.8-2.8 0-3.3-4.8-4.8-8.8-1.5 4-2 8.8-4.8 8.8-3.2 0-5.2-4.6-6-10.8-.6-4.8-2.1-7.5-3.2-10.8-1.8-5.1-2.3-12.5 3.2-15.6Z"
    fill="#fff"
    filter="url(#shadow)"
  />
  <path d="M24 27h5.1l3 9.3 3-9.3H40l-5.8 14h-4.4L24 27Z" fill="#9b5a18"/>
  <path d="M39.8 25.5h4.1c4.4 0 7.1 2.7 7.1 6.7s-2.7 6.8-7.1 6.8h-4.1V25.5Zm4 9.7c1.8 0 3-1.1 3-3s-1.2-3-3-3h-.4v6h.4Z" fill="#9b5a18"/>
</svg>
